<?xml version="1.0" encoding="UTF-8"?>
<svg id="RemakeV4.1" xmlns="http://www.w3.org/2000/svg" width="2000" height="1953.65" xmlns:xlink="http://www.w3.org/1999/xlink" viewBox="0 0 2000 1953.65">
  <defs>
    <radialGradient id="radial-gradient" cx="1015.81" cy="1152.7" fx="1015.81" fy="1152.7" r="259.91" gradientUnits="userSpaceOnUse">
      <stop offset=".71" stop-color="#131213" stop-opacity="0"/>
      <stop offset=".85" stop-color="#131213"/>
    </radialGradient>
    <radialGradient id="radial-gradient-2" cx="1020.56" cy="1156.26" fx="1007.62" fy="1192.98" r="188.84" gradientTransform="translate(2058.05 2306.1) rotate(179.16)" gradientUnits="userSpaceOnUse">
      <stop offset=".72" stop-color="#131213"/>
      <stop offset=".91" stop-color="#131213" stop-opacity=".14"/>
      <stop offset=".94" stop-color="#131213" stop-opacity="0"/>
    </radialGradient>
    <linearGradient id="linear-gradient" x1="875.01" y1="1152.52" x2="1161.2" y2="1152.52" gradientUnits="userSpaceOnUse">
      <stop offset="0" stop-color="#3ac1d1"/>
      <stop offset=".63" stop-color="#3572ab"/>
      <stop offset="1" stop-color="#334998"/>
    </linearGradient>
    <linearGradient id="linear-gradient-2" x1="122.11" y1="1695.02" x2="1845.36" y2="1818.45" gradientUnits="userSpaceOnUse">
      <stop offset="0" stop-color="#3ac1d1"/>
      <stop offset=".18" stop-color="#39b1c9"/>
      <stop offset=".53" stop-color="#3689b6"/>
      <stop offset="1" stop-color="#334998"/>
    </linearGradient>
    <linearGradient id="linear-gradient-3" x1="116.78" y1="1769.45" x2="1840.03" y2="1892.88" xlink:href="#linear-gradient-2"/>
    <linearGradient id="linear-gradient-4" x1="121.32" y1="1705.97" x2="1844.58" y2="1829.39" xlink:href="#linear-gradient-2"/>
    <linearGradient id="linear-gradient-5" x1="122.57" y1="1688.55" x2="1845.82" y2="1811.97" xlink:href="#linear-gradient-2"/>
    <linearGradient id="linear-gradient-6" x1="120.71" y1="1714.48" x2="1843.97" y2="1837.91" xlink:href="#linear-gradient-2"/>
    <linearGradient id="linear-gradient-7" x1="126.93" y1="1627.72" x2="1850.18" y2="1751.14" xlink:href="#linear-gradient-2"/>
    <linearGradient id="linear-gradient-8" x1="128.42" y1="1606.95" x2="1851.67" y2="1730.38" xlink:href="#linear-gradient-2"/>
    <linearGradient id="linear-gradient-9" x1="126.38" y1="1635.37" x2="1849.63" y2="1758.79" xlink:href="#linear-gradient-2"/>
  </defs>
  <g id="V1Shadow">
    <rect x="763.76" y="1102.56" width="242.01" height="99.92" fill="#3b3b3b" stroke-width="0"/>
    <path d="M836.15,1102.56c-10.39,32.99-10.5,66.88-.34,99.92h-57.36v-99.92h57.7Z" fill="url(#radial-gradient)" stroke-width="0"/>
    <path d="M852.96,1102.56c-13.14,32.99-13.28,66.88-.43,99.92h64.15v-99.92h-63.72Z" fill="url(#radial-gradient-2)" stroke-width="0"/>
  </g>
  <circle cx="1018.1" cy="1152.52" r="143.09" fill="url(#linear-gradient)" stroke-width="0"/>
  <circle cx="1018.1" cy="1152.52" r="70.65" fill="#231f20" stroke-width="0"/>
  <g id="text">
    <path d="M224.57,1809.86c17.15,10.55,42.21,19.35,68.6,19.35,39.13,0,62-20.67,62-50.57,0-27.7-15.83-43.53-55.84-58.92-48.37-17.15-78.27-42.21-78.27-83.98,0-46.17,38.25-80.47,95.86-80.47,30.34,0,52.33,7.04,65.52,14.51l-10.55,31.22c-9.67-5.28-29.46-14.07-56.28-14.07-40.45,0-55.84,24.18-55.84,44.41,0,27.7,18.03,41.33,58.92,57.16,50.13,19.35,75.63,43.53,75.63,87.06,0,45.73-33.86,85.3-103.77,85.3-28.58,0-59.8-8.35-75.63-18.91l9.67-32.1Z" fill="url(#linear-gradient-2)" stroke-width="0"/>
    <path d="M455.86,1643.65l46.61,125.76c4.84,14.07,10.11,30.78,13.63,43.53h.88c3.96-12.75,8.35-29.02,13.63-44.41l42.21-124.88h40.89l-58.04,151.7c-27.7,72.99-46.61,110.37-72.99,133.23-18.91,16.71-37.81,23.3-47.49,25.06l-9.67-32.54c9.67-3.08,22.43-9.23,33.86-18.91,10.55-8.35,23.74-23.3,32.54-43.09,1.76-3.96,3.08-7.04,3.08-9.23s-.88-5.28-2.64-10.11l-78.71-196.11h42.21Z" fill="url(#linear-gradient-3)" stroke-width="0"/>
    <path d="M648.9,1701.26c0-21.99-.44-40.01-1.76-57.6h34.3l2.2,35.18h.88c10.55-20.23,35.18-40.01,70.35-40.01,29.46,0,75.19,17.59,75.19,90.58v127.08h-38.69v-122.68c0-34.3-12.75-62.88-49.25-62.88-25.5,0-45.29,18.03-51.89,39.57-1.76,4.84-2.64,11.43-2.64,18.03v127.96h-38.69v-155.22Z" fill="url(#linear-gradient-4)" stroke-width="0"/>
    <path d="M1085.53,1748.3c0,78.71-54.52,113.01-105.97,113.01-57.6,0-102.01-42.21-102.01-109.49,0-71.23,46.61-113.01,105.53-113.01s102.45,44.41,102.45,109.49ZM916.68,1750.5c0,46.61,26.82,81.79,64.64,81.79s64.64-34.74,64.64-82.67c0-36.06-18.03-81.79-63.76-81.79s-65.52,42.21-65.52,82.67Z" fill="url(#linear-gradient-5)" stroke-width="0"/>
    <path d="M1134.34,1713.13c0-27.26-.88-49.25-1.76-69.47h34.74l1.76,36.5h.88c15.83-25.94,40.89-41.33,75.63-41.33,51.45,0,90.14,43.53,90.14,108.17,0,76.51-46.61,114.33-96.74,114.33-28.14,0-52.77-12.31-65.52-33.42h-.88v115.64h-38.26v-230.41ZM1172.59,1769.85c0,5.72.88,10.99,1.76,15.83,7.04,26.82,30.34,45.29,58.04,45.29,40.89,0,64.64-33.42,64.64-82.23,0-42.65-22.43-79.15-63.32-79.15-26.38,0-51.01,18.91-58.48,47.93-1.32,4.84-2.64,10.55-2.64,15.83v36.5Z" fill="url(#linear-gradient-6)" stroke-width="0"/>
    <path d="M1431.14,1582.53v61.12h55.4v29.46h-55.4v114.77c0,26.38,7.47,41.33,29.02,41.33,10.11,0,17.59-1.32,22.43-2.64l1.76,29.02c-7.48,3.08-19.35,5.28-34.3,5.28-18.03,0-32.54-5.72-41.77-16.27-10.99-11.43-14.95-30.34-14.95-55.4v-116.08h-32.98v-29.46h32.98v-51.01l37.82-10.11Z" fill="url(#linear-gradient-7)" stroke-width="0"/>
    <path d="M1573.17,1583.85c.44,13.19-9.23,23.75-24.62,23.75-13.63,0-23.31-10.55-23.31-23.75s10.11-24.18,24.18-24.18,23.74,10.55,23.74,24.18ZM1530.07,1856.47v-212.82h38.7v212.82h-38.7Z" fill="url(#linear-gradient-8)" stroke-width="0"/>
    <path d="M1784.67,1848.56c-10.11,5.28-32.54,12.31-61.12,12.31-64.2,0-105.97-43.53-105.97-108.61s44.85-113.01,114.33-113.01c22.87,0,43.09,5.72,53.65,10.99l-8.79,29.9c-9.23-5.28-23.74-10.11-44.85-10.11-48.81,0-75.19,36.06-75.19,80.47,0,49.25,31.66,79.59,73.87,79.59,21.99,0,36.5-5.72,47.49-10.55l6.6,29.02Z" fill="url(#linear-gradient-9)" stroke-width="0"/>
  </g>
  <path d="M1085.53,1397.82c-21.47,5.89-44.08,9.03-67.43,9.03-140.47,0-254.34-113.87-254.34-254.34s113.87-254.34,254.34-254.34c23.34,0,45.95,3.14,67.43,9.03" fill="none" stroke="#231f20" stroke-linecap="round" stroke-miterlimit="10" stroke-width="60"/>
  <path d="M1192.02,966.93c59.18,44.03,149.38,186,233.24,185.59-83.87-.41-174.07,141.55-233.24,185.59,49.5-46.4,80.42-112.38,80.42-185.59s-30.93-139.18-80.42-185.59Z" fill="#231f20" stroke="#231f20" stroke-linecap="round" stroke-linejoin="round" stroke-width="60"/>
  <path d="M844.19,1338.11c-59.18-44.03-149.38-186-233.24-185.59,83.87.41,174.07-141.55,233.24-185.59-49.5,46.4-80.42,112.38-80.42,185.59s30.93,139.18,80.42,185.59Z" fill="#231f20" stroke="#231f20" stroke-linecap="round" stroke-linejoin="round" stroke-width="60"/>
</svg>